<svg xmlns="http://www.w3.org/2000/svg" width="100" height="100"><ellipse fill="#F6D2DE" stroke="#EF121F" stroke-width="6" stroke-miterlimit="10" cx="48.682" cy="56.139" rx="38.461" ry="39.382"/><ellipse fill="#FFF" stroke="#EF121F" stroke-width="5" stroke-miterlimit="10" cx="49.006" cy="70.237" rx="17.244" ry="17.483"/><path fill="#F6D2DE" d="M23.143 47.793h52.695v25.46H23.143z"/><path fill="none" stroke="#EF121F" stroke-width="5" stroke-miterlimit="10" d="M32 75.83h34.333"/><path fill="#FFF" d="M84.142 46.177c0 4.697-15.841 8.499-35.38 8.499-19.544 0-35.385-3.802-35.385-8.499 0-4.696 15.841-8.498 35.385-8.498 19.539 0 35.38 3.802 35.38 8.498z"/><path fill="#F0195C" d="M44.474 18.78c-6.271-.648-16.861 5.533-20.958 9.866-2.908 3.07-11.795 15-10.531 19.479.577 2.046 4.457 3.833 8.726 5.183 4.471 1.413 9.367 2.344 11.333 2.581 7.557.904 14.781-.004 22.475-.237 7.377-.223 15.49.061 22.413-2.069 9.027-2.781 7.066-10.708 3.072-17.336-3.694-6.123-10.965-12.821-17.823-15.176-7.048-2.424-15.566-1.114-22.752-2.163l4.045-.128z"/><ellipse fill="#F0195C" stroke="#EF121F" stroke-width="6" stroke-miterlimit="10" cx="52.934" cy="16.201" rx="10.943" ry="10.478"/><path fill="none" stroke="#EF121F" stroke-width="6" stroke-miterlimit="10" d="M11.988 45.322c15.154 17.372 66.883 12.933 73.727 1.73"/></svg>